<svg width="150" height="73" viewBox="0 0 150 73" fill="none" xmlns="http://www.w3.org/2000/svg">
<g clip-path="url(#clip0_1_52)">
<path d="M1.875 19V3.55469H6.24609C8.49609 3.55469 10.5117 4.36328 11.9531 5.72266C13.3945 7.09375 14.2734 9.01562 14.2734 11.2656C14.2734 13.5156 13.4414 15.4492 12.0469 16.8086C10.6523 18.1797 8.68359 19 6.43359 19H1.875ZM3.69141 5.24219V17.3125H6.43359C8.30859 17.3125 9.80859 16.7031 10.8516 15.6719C11.8828 14.6406 12.457 13.1758 12.457 11.4531C12.457 9.61328 11.7539 8.05469 10.6289 6.96484C9.50391 5.875 7.94531 5.24219 6.24609 5.24219H3.69141ZM17.0859 3.55469H26.3906V5.24219H18.9023V10.4336H26.3906V12.1211H18.9023V17.3125H26.3906V19H17.0859V3.55469ZM28.8516 19V3.55469H31.8867C34.4062 3.55469 36.3164 3.92969 37.5938 4.72656C38.8594 5.53516 39.5156 6.78906 39.5156 8.57031C39.5156 9.96484 39.1289 11.0312 38.4375 11.8281C37.7461 12.6367 36.7969 13.1992 35.6484 13.5391C34.5 13.8789 33.1758 14.0312 31.7812 14.0312H30.668V19H28.8516ZM30.668 5.26562V12.3203H32.1211C33.8086 12.3203 35.2031 12.1211 36.1875 11.582C37.1602 11.043 37.6992 10.1992 37.6992 8.85156C37.6992 7.44531 37.0781 6.55469 36.082 6.00391C35.0859 5.45312 33.6797 5.26562 32.1211 5.26562H30.668ZM50.4492 15.4023H43.6289L42.3867 19H40.5117L45.8203 3.55469H48.2461L53.5664 19H51.6914L50.4492 15.4023ZM44.2031 13.7148H49.875L47.0391 5.5L44.2031 13.7148ZM55.7344 19V3.55469H59.5195C62.0977 3.55469 63.8086 3.95312 64.8867 4.78516C65.9648 5.62891 66.3984 6.88281 66.3984 8.60547C66.3984 9.78906 66.1641 10.7266 65.707 11.4648C65.25 12.2148 64.5938 12.7422 63.7852 13.1172C63.9727 13.5977 64.3008 14.207 64.7227 14.8281C65.1328 15.4492 65.625 16.082 66.1523 16.5977C66.668 17.125 67.207 17.5586 67.7227 17.7578L66.7266 19.2344C66.1172 19.1055 65.4844 18.6367 64.8867 17.9922C64.2773 17.3477 63.7031 16.5625 63.2109 15.7773C62.7188 14.9922 62.3086 14.2422 62.0391 13.6797C61.043 13.8789 59.9062 13.9492 58.6758 13.9492H57.5508V19H55.7344ZM57.5508 5.25391V12.25H59.1094C60.7969 12.25 62.168 12.0391 63.1289 11.5C64.0898 10.9609 64.6172 10.082 64.6172 8.75781C64.6172 7.35156 64.1133 6.47266 63.1992 5.94531C62.2852 5.42969 60.9844 5.25391 59.4023 5.25391H57.5508ZM68.8477 3.55469H80.2148V5.24219H75.4336V19H73.6289V5.24219H68.8477V3.55469ZM81.6797 3.55469H90.9844V5.24219H83.4961V10.4336H90.9844V12.1211H83.4961V17.3125H90.9844V19H81.6797V3.55469ZM99.9492 11.3359L103.898 3.55469H106.371V19H104.496V6.07422L100.137 14.5469H99.7148L95.2617 5.96875V19H93.5039V3.55469H95.9531L99.9023 11.3359H99.9492ZM110.016 3.55469H119.32V5.24219H111.832V10.4336H119.32V12.1211H111.832V17.3125H119.32V19H110.016V3.55469ZM123.598 6.95312V19H121.781V3.55469H123.668L131.133 15.4961V3.55469H132.949V19H131.133L123.598 6.95312ZM135.246 3.55469H146.613V5.24219H141.832V19H140.027V5.24219H135.246V3.55469Z" fill="#333332"/>
<path d="M0.703125 31.2656C0.703125 29.0156 1.46484 27.0352 2.77734 25.6055C4.08984 24.1758 5.95312 23.3203 8.15625 23.3203C10.3594 23.3203 12.1875 24.1758 13.4648 25.6055C14.7305 27.0352 15.457 29.0156 15.457 31.2656C15.457 33.5156 14.707 35.4961 13.3945 36.9258C12.082 38.3555 10.2305 39.2344 8.02734 39.2344C5.82422 39.2344 3.98438 38.3555 2.71875 36.9258C1.44141 35.4961 0.703125 33.5156 0.703125 31.2656ZM3.44531 31.1484C3.44531 32.6953 3.85547 34.0664 4.65234 35.0391C5.4375 36.0117 6.60938 36.5977 8.15625 36.5977C9.65625 36.5977 10.793 36.0586 11.5547 35.1211C12.3164 34.1953 12.7148 32.8945 12.7148 31.3828C12.7148 29.6133 12.1172 28.2422 11.2383 27.3281C10.3477 26.4141 9.16406 25.9453 7.99219 25.9453C6.85547 25.9453 5.70703 26.3906 4.86328 27.2695C4.00781 28.1484 3.44531 29.4492 3.44531 31.1484ZM30.7734 39H28.0312V29.4258L25.5352 34.1133H22.9336L20.4375 29.4258V39H17.6953V23.5547H20.4375L24.2344 30.7148L28.0312 23.5547H30.7734V39ZM44.7539 26.3438L44.6602 26.3906C44.0625 26.2031 43.3828 26.0742 42.7734 26.0039C42.1641 25.9336 41.6133 25.9102 41.2852 25.9102C39.9258 25.9102 38.5312 26.332 37.4883 27.1875C36.4453 28.043 35.7422 29.3438 35.7422 31.1133C35.7422 32.7891 36.2227 34.1602 37.0664 35.1094C37.9102 36.0586 39.1055 36.5977 40.5117 36.5977C41.7305 36.5977 42.7617 36.1992 43.5234 35.4844V32.8008H40.6758V30.2578H46.0312L46.125 30.3516V39H44.707L43.9805 38.3086C42.9141 38.9062 41.6953 39.2344 40.3242 39.2344C38.1211 39.2344 36.2578 38.3672 34.957 36.9375C33.6445 35.5078 32.8828 33.5156 32.8828 31.2656C32.8828 29.2969 33.4688 27.3047 34.793 25.8047C36.1172 24.3164 38.1797 23.3203 41.1445 23.3203C41.8828 23.3203 42.5156 23.3672 43.0898 23.4492C43.6641 23.543 44.1914 23.6602 44.7539 23.8125V26.3438ZM48.8203 23.5547H57.9961V26.1914H51.5625V30H57.8203V32.6367H51.5625V36.3633H57.9961V39H48.8203V23.5547ZM73.3125 23.5547L67.9102 39.2344H64.6992L59.2969 23.5547H62.2031L66.3047 35.4609L70.4062 23.5547H73.3125ZM77.9297 23.5547V39H75.1875V23.5547H77.9297ZM83.7188 28.7344V39H80.9766V23.5547H83.7188L90.1406 33.832V23.5547H92.8828V39H90.1406L83.7188 28.7344ZM106.863 26.3438L106.77 26.3906C106.172 26.2031 105.492 26.0742 104.883 26.0039C104.273 25.9336 103.723 25.9102 103.395 25.9102C102.035 25.9102 100.641 26.332 99.5977 27.1875C98.5547 28.043 97.8516 29.3438 97.8516 31.1133C97.8516 32.7891 98.332 34.1602 99.1758 35.1094C100.02 36.0586 101.215 36.5977 102.621 36.5977C103.84 36.5977 104.871 36.1992 105.633 35.4844V32.8008H102.785V30.2578H108.141L108.234 30.3516V39H106.816L106.09 38.3086C105.023 38.9062 103.805 39.2344 102.434 39.2344C100.23 39.2344 98.3672 38.3672 97.0664 36.9375C95.7539 35.5078 94.9922 33.5156 94.9922 31.2656C94.9922 29.2969 95.5781 27.3047 96.9023 25.8047C98.2266 24.3164 100.289 23.3203 103.254 23.3203C103.992 23.3203 104.625 23.3672 105.199 23.4492C105.773 23.543 106.301 23.6602 106.863 23.8125V26.3438Z" fill="#333332"/>
<path d="M0.9375 57.2773H5.66016V58.1211H1.8457V60.6875H5.66016V61.5898H1.8457V65H0.9375V57.2773ZM6.83203 57.2773H7.74023V64.1562H11.3672V65H6.83203V57.2773ZM17.7305 57.2773H18.6328V62.1289C18.6328 63.002 18.457 63.6348 18.1758 64.0742C17.8945 64.5195 17.5078 64.7832 17.0801 64.9297C16.6523 65.0762 16.1836 65.1172 15.7441 65.1172C15.3047 65.1172 14.8477 65.0762 14.4258 64.9297C13.998 64.7832 13.6172 64.5254 13.3359 64.0801C13.0547 63.6348 12.8848 63.0137 12.8848 62.1289V57.2773H13.7871V61.8359C13.7871 62.6035 13.8984 63.1367 14.0859 63.4941C14.2676 63.8516 14.5312 64.0508 14.8184 64.1621C15.1055 64.2734 15.4277 64.2852 15.7383 64.2852C16.084 64.2852 16.418 64.2676 16.7168 64.1504C17.0156 64.0391 17.2617 63.8398 17.4434 63.4766C17.625 63.1133 17.7305 62.5918 17.7305 61.8359V57.2773ZM23.2207 60.0957L25.0488 57.2773H26.1035L23.748 60.9043L26.4082 65H25.3535L23.2207 61.7188L21.0879 65H20.0332L22.6934 60.9043L20.3379 57.2773H21.3926L23.2207 60.0957ZM30.5391 56.5156H31.4414V66.582H30.5391V56.5156ZM40.4531 58.877L38.7012 65H37.7871L35.5723 57.2773H36.4922L38.2383 63.4062L39.9961 57.2773H40.9102L42.6621 63.4062L44.4141 57.2773H45.334L43.1191 65H42.2051L40.4531 58.877ZM46.2422 57.2773H50.8945V58.1211H47.1504V60.7168H50.8945V61.5605H47.1504V64.1562H50.8945V65H46.2422V57.2773ZM52.125 65V57.2773H53.2969C54.5156 57.2773 55.3945 57.4004 55.9746 57.7227C56.5547 58.0449 56.8301 58.5547 56.8301 59.334C56.8301 60.1309 56.5781 60.623 56.1387 60.9336C56.9414 61.2617 57.3164 61.8301 57.3164 62.75C57.3164 63.4473 57.123 63.9277 56.7773 64.2559C56.4316 64.5898 55.957 64.7773 55.3828 64.877C54.8086 64.9766 54.1465 65 53.4492 65H52.125ZM53.0332 58.1211V60.5996H53.3672C54.2168 60.5996 54.8613 60.5938 55.2891 60.4414C55.7109 60.2891 55.9277 60.002 55.9277 59.4219C55.9277 58.8184 55.7051 58.4961 55.2773 58.3203C54.8496 58.1445 54.2168 58.1211 53.4141 58.1211H53.0332ZM53.0332 61.4551V64.1445H53.625C54.5566 64.1445 55.248 64.1152 55.7168 63.9395C56.1797 63.7637 56.4082 63.4355 56.4082 62.832C56.4082 62.2402 56.1855 61.8887 55.7637 61.6953C55.3359 61.502 54.7031 61.4551 53.9004 61.4551H53.0332ZM67.2832 64.0449V64.877C67.0195 64.9531 66.709 65.0117 66.4043 65.0527C66.0938 65.0996 65.7773 65.1172 65.502 65.1172C64.2129 65.1172 63.2461 64.6953 62.6133 63.9688C61.9746 63.2422 61.6523 62.2168 61.6523 61.0156C61.6758 59.9316 61.9922 58.959 62.625 58.2676C63.2578 57.5762 64.2129 57.1602 65.502 57.1602C65.7773 57.1602 66.0938 57.1836 66.4043 57.2246C66.709 57.2656 67.0195 57.3242 67.2832 57.4004V58.2324L67.2422 58.2559C66.9668 58.168 66.6621 58.1094 66.3633 58.0684C66.0645 58.0273 65.7832 58.0098 65.5488 58.0098C64.5469 58.0098 63.7969 58.332 63.3047 58.877C62.8066 59.4219 62.5547 60.2129 62.5547 61.1328C62.5547 62.0469 62.8008 62.8262 63.2988 63.3828C63.7969 63.9395 64.541 64.2676 65.5488 64.2676C65.7832 64.2676 66.0645 64.25 66.3633 64.209C66.6621 64.168 66.9668 64.1094 67.2422 64.0215L67.2832 64.0449ZM67.9922 61.1328C67.9922 60.0078 68.3613 59.0176 69 58.3027C69.6387 57.5879 70.541 57.1602 71.6133 57.1602C72.6855 57.1602 73.5703 57.5879 74.1914 58.3027C74.8125 59.0176 75.1582 60.0078 75.1582 61.1328C75.1582 62.2578 74.7891 63.248 74.1562 63.9629C73.5234 64.6777 72.6211 65.1172 71.5488 65.1172C70.4766 65.1172 69.5918 64.6836 68.9707 63.9688C68.3496 63.2539 67.9922 62.2578 67.9922 61.1328ZM68.8945 61.0625C68.8945 61.9707 69.1406 62.7676 69.6035 63.3418C70.0664 63.916 70.752 64.2734 71.6191 64.2734C72.4629 64.2734 73.125 63.9453 73.5703 63.4004C74.0156 62.8555 74.2559 62.0879 74.2559 61.2031C74.2559 60.2949 74.0215 59.4922 73.5703 58.918C73.1191 58.3438 72.457 58.0039 71.5898 58.0039C70.7461 58.0039 70.0723 58.332 69.6094 58.877C69.1406 59.4219 68.8945 60.1895 68.8945 61.0625ZM79.8223 61.168L81.7969 57.2773H83.0332V65H82.0957V58.5371L79.916 62.7734H79.7051L77.4785 58.4844V65H76.5996V57.2773H77.8242L79.7988 61.168H79.8223ZM84.8555 65V57.2773H86.373C87.6328 57.2773 88.5879 57.4648 89.2266 57.8633C89.8594 58.2676 90.1875 58.8945 90.1875 59.7852C90.1875 60.4824 89.9941 61.0156 89.6484 61.4141C89.3027 61.8184 88.8281 62.0996 88.2539 62.2695C87.6797 62.4395 87.0176 62.5156 86.3203 62.5156H85.7637V65H84.8555ZM85.7637 58.1328V61.6602H86.4902C87.334 61.6602 88.0312 61.5605 88.5234 61.291C89.0098 61.0215 89.2793 60.5996 89.2793 59.9258C89.2793 59.2227 88.9688 58.7773 88.4707 58.502C87.9727 58.2266 87.2695 58.1328 86.4902 58.1328H85.7637ZM91.0078 61.1328C91.0078 60.0078 91.377 59.0176 92.0156 58.3027C92.6543 57.5879 93.5566 57.1602 94.6289 57.1602C95.7012 57.1602 96.5859 57.5879 97.207 58.3027C97.8281 59.0176 98.1738 60.0078 98.1738 61.1328C98.1738 62.2578 97.8047 63.248 97.1719 63.9629C96.5391 64.6777 95.6367 65.1172 94.5645 65.1172C93.4922 65.1172 92.6074 64.6836 91.9863 63.9688C91.3652 63.2539 91.0078 62.2578 91.0078 61.1328ZM91.9102 61.0625C91.9102 61.9707 92.1562 62.7676 92.6191 63.3418C93.082 63.916 93.7676 64.2734 94.6348 64.2734C95.4785 64.2734 96.1406 63.9453 96.5859 63.4004C97.0312 62.8555 97.2715 62.0879 97.2715 61.2031C97.2715 60.2949 97.0371 59.4922 96.5859 58.918C96.1348 58.3438 95.4727 58.0039 94.6055 58.0039C93.7617 58.0039 93.0879 58.332 92.625 58.877C92.1562 59.4219 91.9102 60.1895 91.9102 61.0625ZM100.494 58.9766V65H99.5859V57.2773H100.529L104.262 63.248V57.2773H105.17V65H104.262L100.494 58.9766ZM106.992 57.2773H111.645V58.1211H107.9V60.7168H111.645V61.5605H107.9V64.1562H111.645V65H106.992V57.2773ZM113.783 58.9766V65H112.875V57.2773H113.818L117.551 63.248V57.2773H118.459V65H117.551L113.783 58.9766ZM119.607 57.2773H125.291V58.1211H122.9V65H121.998V58.1211H119.607V57.2773ZM126.023 57.2773H130.676V58.1211H126.932V60.7168H130.676V61.5605H126.932V64.1562H130.676V65H126.023V57.2773ZM132.814 58.9766V65H131.906V57.2773H132.85L136.582 63.248V57.2773H137.49V65H136.582L132.814 58.9766Z" fill="#333332"/>
</g>
<defs>
<clipPath id="clip0_1_52">
<rect width="150" height="73" fill="white"/>
</clipPath>
</defs>
</svg>
