<?xml version="1.0" encoding="UTF-8"?>
<svg id="Layer_1" data-name="Layer 1" xmlns="http://www.w3.org/2000/svg" viewBox="0 0 218.46 85.04">
  <defs>
    <style>
      .cls-1 {
        fill: #fff;
      }

      .cls-2 {
        fill: #f6f6f3;
      }

      .cls-3 {
        fill: #447a6d;
      }
    </style>
  </defs>
  <g>
    <polyline class="cls-2" points="47.3 0 76.24 85.04 0 85.04 0 .01 47.3 0"/>
    <g>
      <polygon class="cls-3" points="218.46 85.04 76.2 85.04 47.36 .01 218.46 .01 218.46 85.04"/>
      <g>
        <path class="cls-2" d="M89.49,21.1l-5.61,16.28h-3.33l-5.61-16.28h3.02l4.26,12.36,4.26-12.36h3.02Z"/>
        <path class="cls-2" d="M93.92,19.52h.37v17.62h-2.85v-17.38l2.48-.24Z"/>
        <path class="cls-2" d="M107,37.38c-.92,0-1.9-.29-2.84-1.33-.5.38-.94.7-1.46.94-.54.24-1.13.39-1.95.39-.88,0-1.91-.17-2.73-.75-.83-.58-1.44-1.58-1.44-3.27,0-1.11.27-2,.95-2.59.68-.6,1.79-.92,3.48-.92.68,0,1.47,0,2.59.1v-.63c0-.88-.28-1.48-.73-1.85s-1.06-.51-1.74-.51c-1.08,0-2.36.39-3.38.86l-.67-2.48c1.33-.63,3.02-1.07,4.61-1.07,1.25,0,2.42.27,3.3.92.86.66,1.41,1.69,1.41,3.24v4.7c0,.6.19,1.01.54,1.3.33.29.79.48,1.34.58l-1.29,2.38ZM103.6,32.03c-1.33,0-2.36-.02-3.07.15-.71.17-1.1.54-1.1,1.28,0,1.03.74,1.61,1.78,1.61.35,0,.95-.07,1.46-.39.51-.32.92-.89.92-1.87v-.77Z"/>
        <path class="cls-2" d="M119.54,37.38c-.92,0-1.9-.29-2.83-1.33-.5.38-.94.7-1.46.94-.54.24-1.13.39-1.95.39-.88,0-1.91-.17-2.73-.75-.83-.58-1.44-1.58-1.44-3.27,0-1.11.27-2,.95-2.59s1.79-.92,3.48-.92c.68,0,1.47,0,2.59.1v-.63c0-.88-.28-1.48-.73-1.85-.45-.37-1.06-.51-1.74-.51-1.08,0-2.36.39-3.38.86l-.67-2.48c1.33-.63,3.02-1.07,4.61-1.07,1.25,0,2.42.27,3.3.92.86.66,1.41,1.69,1.41,3.24v4.7c0,.6.19,1.01.54,1.3.33.29.79.48,1.34.58l-1.29,2.38ZM116.15,32.03c-1.33,0-2.36-.02-3.07.15-.71.17-1.1.54-1.1,1.28,0,1.03.74,1.61,1.78,1.61.35,0,.95-.07,1.46-.39.51-.32.92-.89.92-1.87v-.77Z"/>
        <path class="cls-2" d="M122.53,24.51h2.41l.28.99c1.17-.78,2.62-1.23,4.03-1.23,1.21,0,2.36.33,3.2,1.06.84.73,1.39,1.84,1.39,3.43v8.38h-2.85v-7.54c0-.94-.34-1.59-.86-2.01-.52-.41-1.23-.58-2-.58-.97,0-1.97.29-2.75.78v9.36h-2.85v-12.63Z"/>
        <path class="cls-2" d="M147.46,37.14h-2.15l-.51-.95c-.97.73-2,1.19-3.4,1.19-1.81,0-3.16-.73-4.05-1.85-.89-1.12-1.33-2.63-1.33-4.19,0-2.38.72-4.16,1.91-5.34,1.19-1.17,2.87-1.74,4.82-1.74.57,0,1.19.04,1.86.12v-4.62l2.41-.24h.44v17.62ZM144.62,27.18c-.72-.18-1.45-.27-2.02-.27-1.08,0-2,.32-2.63.97-.63.66-1,1.63-1,2.94,0,.96.27,1.9.78,2.62.51.72,1.27,1.19,2.28,1.19.86,0,1.82-.3,2.59-.78v-6.68Z"/>
        <path class="cls-2" d="M159.88,33.86v2.76c-1.12.55-2.51.75-3.59.75-1.75,0-3.37-.55-4.56-1.63s-1.95-2.74-1.95-4.93.71-3.76,1.78-4.88c1.06-1.11,2.48-1.68,3.91-1.68.4,0,1.12.05,1.86.3.74.26,1.56.74,2.17,1.58.61.84,1.03,2.08,1.03,3.83v1.9h-7.67c.23,1.02.76,1.72,1.44,2.15.67.44,1.48.62,2.3.62,1.07,0,2.2-.3,3.18-.83l.11.04ZM157.92,29.63c-.06-.92-.39-1.58-.83-2.02-.44-.43-1-.61-1.54-.61-.58,0-1.18.19-1.67.62-.5.44-.88,1.1-1.06,2.01h5.1Z"/>
        <path class="cls-2" d="M170.3,27.65c-.72-.44-1.42-.63-2.14-.63-.92,0-1.78.34-2.54.92v9.2h-2.85v-12.63h2.41l.29,1.03c.88-.74,1.95-1.28,3.21-1.28.34,0,.81.02,1.28.11.46.09.91.21,1.24.39l-.9,2.88Z"/>
        <path class="cls-2" d="M182.03,33.86v2.76c-1.12.55-2.51.75-3.59.75-1.75,0-3.37-.55-4.56-1.63s-1.95-2.74-1.95-4.93.71-3.76,1.78-4.88c1.06-1.11,2.48-1.68,3.91-1.68.4,0,1.12.05,1.86.3.74.26,1.56.74,2.17,1.58.61.84,1.03,2.08,1.03,3.83v1.9h-7.67c.23,1.02.76,1.72,1.44,2.15.67.44,1.48.62,2.3.62,1.07,0,2.2-.3,3.18-.83l.11.04ZM180.07,29.63c-.06-.92-.39-1.58-.83-2.02-.44-.43-1-.61-1.54-.61-.58,0-1.18.19-1.67.62-.5.44-.88,1.1-1.06,2.01h5.1Z"/>
        <path class="cls-2" d="M184.93,24.51h2.41l.28.99c1.17-.78,2.62-1.23,4.03-1.23,1.2,0,2.36.33,3.2,1.06.84.73,1.39,1.84,1.39,3.43v8.38h-2.85v-7.54c0-.94-.34-1.59-.86-2.01-.52-.41-1.23-.58-2-.58-.97,0-1.97.29-2.75.78v9.36h-2.85v-12.63Z"/>
      </g>
      <g>
        <path class="cls-3" d="M48.26,42.95c-2.07-1.58-3.03.01-4.33-.09-1.1-.09-2.13-1.86-2.98-1.44-1.62.83.65,3.75,1.64,4.35.88.53,1.99,1.01,2.25,1.14,1.31.61,1.82,1.53,1.99,2.98.04.33,0,1.09-.08,1.44-.6,2.53-5.03,4.83-7.57,3.09-1.2-.82-2.29-1.88-2.67-3.76-.68-3.32-3.08-5.77-3.85-9.02-.47-1.98-.81-4.06-1.33-6.05-.52-2.05-1.06-4.09-1.49-5.96-.39-1.74-1.22-4.33-1.82-5.91-2.43-6.34-3.53-5.88-3.53-5.88,0,0,.88,1.76,4.1,17.31.13.64,1.3,7.48,2.16,9.74.31.81.84,2.53,1.19,3.3,1.02,2.23,3.73,5.6,3.9,8.65.1,1.76.3,3.22.34,4.55.03.39.2,1.98.45,2.68.66,1.86,5.99,7.85,11.64,7.85v-4.54c-5.62,0-10.91-3.15-11.04-3.48-.08-.15.29-2.3.67-3.25.74-1.85,2.12-3.54,4.57-3.72,2.72-.2,4.36.59,5.8.59v-14.55Z"/>
        <path class="cls-3" d="M23.86,26.47c-.21,3.4-5.47,8.05-7.12,11.03-.81,1.47-1.79,3.98-2.05,5.44-.7,4.06.19,6.58,1.18,8.95,1.74,4.17-.24,5.71,1.13,4.86,1.69-1.37,1.43-4.58,1.3-6.57-.1-1.62-.21-3.47.04-5.4.47-3.62,2.66-7.5,4.53-10.22,2.22-3.24,1.41-6.59.99-8.09"/>
        <path class="cls-3" d="M24.92,36.13s.56,2.69-1.82,9.62c-6.21,18.11,5.66,19.83,9.04,24.09,0,0,1.31-1.84-4.08-7.75-1.97-2.16-3.74-6.91-2.19-13.7,2.23-9.83-.95-12.25-.95-12.25"/>
        <path class="cls-3" d="M13.17,24.25c-.28-1.07-.37-2.03-.31-2.88.29-4.26,4.15-5.98,5.12-6.61,0,0,1.74-1.19,1.96-2.39,0,0,1.78,4.48-2.3,7.05-2.07,1.3-3.48,2.83-4.47,4.84"/>
        <path class="cls-3" d="M22.91,20.14c.22.43,1.82,2.78-4.74,8.19-6.55,5.41-4.5,9.27-4.5,9.27,0,0-6.99-3.89,1.06-10.61,8.05-6.71,6.4-8.07,6.4-8.07,0,0,1.15-.06,1.78,1.21"/>
        <path class="cls-3" d="M31.43,22.21c1.13.15,1.85,3.68,4.48,4.45,1.93.56,3.98.26,4.43,1.42-.88.47-.19,2.03.7,1.77.73-2.06,1.1-10.05-9.61-7.64ZM34.96,23.8c.1-.25.23-.05.52-.23.31-.29.62-.76,1.12-.92.36-.11.85-.06,1.18.07.22.06.09.63-.08.77-.35.26-1.4-.17-1.4.61.04,1.29,1.74-.04,2.63,0,.43,3.14-4.73,2.28-3.96-.3Z"/>
      </g>
    </g>
  </g>
  <g>
    <path class="cls-1" d="M79.62,42.73c0-.43.34-.77.77-.77s.78.34.78.77-.36.76-.78.76-.77-.36-.77-.76ZM80.94,44.77v7.48h-1.11v-7.48h1.11Z"/>
    <path class="cls-1" d="M82.63,51.01l.04-.04c.48.19,1.18.37,1.72.37.79,0,1.88-.36,1.88-1.21,0-.4-.22-.66-.56-.87-.45-.28-1.23-.5-1.91-.87-.79-.42-1.15-1.02-1.15-1.81,0-1.43,1.18-1.97,2.55-1.97.55,0,1.08.09,1.52.21v1.01l-.04.02c-.4-.11-1.13-.24-1.65-.24-.66,0-1.27.19-1.27.87,0,.41.24.69.58.91.47.31,1.36.57,2.08.94.76.4.97.85.97,1.65s-.4,1.41-.97,1.81c-.58.4-1.35.59-2.09.59-.63,0-1.21-.13-1.7-.34v-1.05Z"/>
    <path class="cls-1" d="M98.84,51.41l-.46.99c-.37-.02-.81-.26-1.25-.61-.44-.34-.9-.8-1.31-1.27-.41-.46-.79-.94-1.05-1.32-.14-.19-.25-.35-.32-.48-.09-.14-.14-.22-.15-.27v3.8h-1.12v-10.25l1.05-.19h.07v6.5l2.97-3.55h1.43l-3.04,3.62c.04.17.27.51.62.92.35.41.79.88,1.25,1.28s.94.71,1.32.83Z"/>
    <path class="cls-1" d="M108.01,52.25h-1.38l-1.67-5.7-1.67,5.7h-1.39l-2.37-7.48h1.08l1.98,6.25,1.85-6.25h1.02l1.85,6.25,1.98-6.25h1.07l-2.37,7.48Z"/>
    <path class="cls-1" d="M117.6,51.35l-.63,1.05c-.53-.17-.89-.56-1.13-1.05-.57.66-1.38,1.05-2.31,1.05-.5,0-1.1-.11-1.59-.45-.49-.35-.84-.92-.84-1.85,0-1.58,1.07-2.16,2.86-2.16.4,0,.84.03,1.51.09v-.93c0-1.02-.48-1.43-1.41-1.43-.8,0-1.49.15-2.25.53l-.29-.97c1.02-.41,1.59-.59,2.73-.59,1.49,0,2.33.76,2.33,2.46v2.38c0,.89.14,1.61,1.03,1.89ZM115.46,49.56v-.61c-1.03,0-1.85-.02-2.4.12-.56.14-.86.43-.86,1.02,0,.8.63,1.27,1.24,1.27,1.12,0,2.02-.46,2.02-1.8Z"/>
    <path class="cls-1" d="M119.92,41.81h.07v10.44h-1.11v-10.3l1.04-.14Z"/>
    <path class="cls-1" d="M122,42.73c0-.43.34-.77.77-.77s.78.34.78.77-.36.76-.78.76-.77-.36-.77-.76ZM123.33,44.77v7.48h-1.11v-7.48h1.11Z"/>
    <path class="cls-1" d="M125.56,44.77v-1.34l1.05-.19h.07v1.54h2.08v1.04h-2.08v3.68c0,.68.15,1.15.39,1.45s.58.43.96.43c.43,0,.92-.17,1.41-.45l.3,1.02c-.63.29-1.26.45-1.85.45-.66,0-1.23-.2-1.65-.67-.43-.46-.68-1.2-.68-2.24v-3.68h-.83v-1.04h.83Z"/>
    <path class="cls-1" d="M136.01,48.79h-4.67c.1,1.56,1.05,2.57,2.47,2.57.67,0,1.33-.19,2.02-.53h.02v1.04c-.78.38-1.46.53-2.15.53-2.17,0-3.48-1.54-3.48-3.98,0-2.17,1.01-3.79,3.22-3.79,1.92,0,2.56,1.43,2.56,3.16v1.01ZM131.4,47.78h3.52c-.01-1.17-.32-2.12-1.49-2.12s-1.85.92-2.03,2.12Z"/>
    <path class="cls-1" d="M137.55,42.73c0-.43.34-.77.77-.77s.78.34.78.77-.36.76-.78.76-.77-.36-.77-.76ZM138.87,44.77v7.48h-1.11v-7.48h1.11Z"/>
    <path class="cls-1" d="M141.1,44.77v-1.34l1.05-.19h.07v1.54h2.08v1.04h-2.08v3.68c0,.68.15,1.15.39,1.45s.58.43.96.43c.43,0,.92-.17,1.41-.45l.3,1.02c-.63.29-1.26.45-1.85.45-.66,0-1.23-.2-1.65-.67-.43-.46-.68-1.2-.68-2.24v-3.68h-.83v-1.04h.83Z"/>
    <path class="cls-1" d="M146.21,51.01l.04-.04c.48.19,1.18.37,1.72.37.79,0,1.88-.36,1.88-1.21,0-.4-.22-.66-.56-.87-.45-.28-1.23-.5-1.91-.87-.79-.42-1.15-1.02-1.15-1.81,0-1.43,1.18-1.97,2.55-1.97.55,0,1.08.09,1.52.21v1.01l-.04.02c-.4-.11-1.13-.24-1.65-.24-.66,0-1.27.19-1.27.87,0,.41.24.69.58.91.47.31,1.36.57,2.08.94.76.4.97.85.97,1.65s-.4,1.41-.97,1.81c-.58.4-1.35.59-2.09.59-.63,0-1.21-.13-1.7-.34v-1.05Z"/>
    <path class="cls-1" d="M155.7,52.25h-1.49l-2.57-7.48h1.15l2.16,6.29,2.16-6.29h1.15l-2.57,7.48Z"/>
    <path class="cls-1" d="M158.76,48.53c0-1.09.36-2.06.97-2.77.61-.71,1.47-1.14,2.49-1.14s1.88.44,2.47,1.14.93,1.67.93,2.73-.35,2.05-.96,2.76c-.61.71-1.49,1.14-2.5,1.14s-1.87-.44-2.47-1.14c-.59-.69-.94-1.66-.94-2.73ZM159.88,48.48c0,.78.19,1.51.59,2.03.4.53.98.86,1.76.86s1.32-.3,1.7-.8.58-1.2.58-2-.19-1.51-.58-2.04-.96-.85-1.74-.85-1.33.3-1.72.81-.6,1.22-.6,2Z"/>
    <path class="cls-1" d="M168.3,41.81h.07v10.44h-1.11v-10.3l1.04-.14Z"/>
    <path class="cls-1" d="M171.52,41.81h.07v10.44h-1.11v-10.3l1.04-.14Z"/>
    <path class="cls-1" d="M179.03,48.79h-4.67c.1,1.56,1.05,2.57,2.47,2.57.67,0,1.33-.19,2.02-.53h.02v1.04c-.78.38-1.46.53-2.15.53-2.17,0-3.48-1.54-3.48-3.98,0-2.17,1.01-3.79,3.22-3.79,1.92,0,2.56,1.43,2.56,3.16v1.01ZM174.41,47.78h3.52c-.01-1.17-.32-2.12-1.49-2.12s-1.85.92-2.03,2.12Z"/>
    <path class="cls-1" d="M79.04,63.3c0-1.09.36-2.06.97-2.77.61-.71,1.47-1.14,2.49-1.14s1.88.44,2.47,1.14.93,1.67.93,2.73-.35,2.05-.96,2.76c-.61.71-1.49,1.14-2.5,1.14s-1.87-.44-2.47-1.14c-.59-.69-.94-1.66-.94-2.73ZM80.16,63.24c0,.78.19,1.51.59,2.03.4.53.98.86,1.76.86s1.32-.3,1.7-.8.58-1.2.58-2-.19-1.51-.58-2.04-.96-.85-1.74-.85-1.33.3-1.72.81-.6,1.22-.6,2Z"/>
    <path class="cls-1" d="M91.8,67.02v-4.73c0-.69-.14-1.16-.39-1.46-.25-.29-.59-.41-.99-.41-.63,0-1.22.28-1.77.71v5.89h-1.12v-7.48h.71l.25.68c.45-.3.83-.5,1.17-.63s.65-.19.97-.19c.63,0,1.25.23,1.71.81.31-.19.68-.4,1.07-.55s.78-.26,1.12-.26c.71,0,1.37.18,1.86.63.48.45.79,1.15.79,2.21v4.79h-1.12v-4.73c0-.72-.19-1.19-.48-1.48-.3-.29-.71-.4-1.16-.4-.58,0-1.17.27-1.69.56.11.35.17.76.17,1.25v4.79h-1.11Z"/>
    <path class="cls-1" d="M100.86,65.46h1.41c1.03,0,1.79.24,2.29.63.49.39.74.92.74,1.48,0,.81-.5,1.54-1.23,2.06-.73.53-1.69.84-2.62.84-.86,0-1.55-.27-2.03-.7-.48-.43-.74-1.02-.74-1.69,0-.61.32-1.33.89-1.9-.2-.12-.35-.31-.45-.53s-.16-.46-.16-.67c0-.4.19-.87.54-1.31-.2-.21-.36-.5-.46-.81-.1-.31-.16-.65-.16-.97,0-.71.28-1.33.77-1.78s1.18-.71,2-.71c.56,0,1.05.12,1.45.35.32-.24.68-.43,1.01-.56s.65-.19.9-.19l.33.94c-.4.06-.92.23-1.41.54.28.4.43.87.43,1.39,0,.71-.29,1.37-.78,1.85-.5.48-1.2.79-2.01.79-.53,0-.99-.13-1.38-.32-.17.21-.25.42-.25.61,0,.37.32.67.92.67ZM101.28,66.41h-.84c-.4.46-.66,1.05-.66,1.56,0,.44.12.82.41,1.09s.74.43,1.41.43c.75,0,1.39-.25,1.85-.6.45-.35.71-.81.71-1.26,0-.56-.32-.86-.84-1.03-.53-.17-1.25-.19-2.03-.19ZM101.62,60.39c-.56,0-.98.21-1.27.5s-.43.68-.43,1.06.15.76.44,1.06.71.5,1.28.5.97-.2,1.25-.5c.28-.29.42-.67.42-1.05s-.14-.77-.43-1.07c-.29-.3-.71-.5-1.27-.5Z"/>
    <path class="cls-1" d="M111.7,63.56h-4.66c.1,1.56,1.05,2.57,2.47,2.57.67,0,1.33-.19,2.02-.53h.02v1.04c-.78.38-1.46.53-2.15.53-2.17,0-3.48-1.54-3.48-3.98,0-2.17,1.01-3.79,3.22-3.79,1.92,0,2.56,1.43,2.56,3.16v1.01ZM107.08,62.55h3.52c-.01-1.17-.32-2.12-1.48-2.12s-1.85.92-2.03,2.12Z"/>
    <path class="cls-1" d="M116.38,67.02h-1.49l-2.57-7.48h1.15l2.16,6.29,2.16-6.29h1.15l-2.57,7.48Z"/>
    <path class="cls-1" d="M120.09,57.5c0-.43.34-.77.77-.77s.78.34.78.77-.36.76-.78.76-.77-.36-.77-.76ZM121.42,59.54v7.48h-1.11v-7.48h1.11Z"/>
    <path class="cls-1" d="M124.39,59.54l.21.69c.31-.2.68-.41,1.08-.57s.81-.27,1.16-.27c.71,0,1.37.18,1.86.63.48.45.79,1.15.79,2.21v4.79h-1.12v-4.72c0-.72-.19-1.19-.48-1.48-.3-.29-.71-.4-1.16-.4-.35,0-.7.09-1.04.23s-.65.32-.94.49v5.88h-1.12v-7.48h.75Z"/>
    <path class="cls-1" d="M133.18,65.46h1.41c1.03,0,1.79.24,2.29.63.49.39.74.92.74,1.48,0,.81-.5,1.54-1.23,2.06-.73.53-1.69.84-2.62.84-.86,0-1.55-.27-2.03-.7-.48-.43-.74-1.02-.74-1.69,0-.61.32-1.33.89-1.9-.2-.12-.35-.31-.45-.53s-.16-.46-.16-.67c0-.4.19-.87.54-1.31-.2-.21-.36-.5-.46-.81-.1-.31-.16-.65-.16-.97,0-.71.28-1.33.77-1.78s1.18-.71,2-.71c.56,0,1.05.12,1.45.35.32-.24.68-.43,1.01-.56s.65-.19.9-.19l.33.94c-.4.06-.92.23-1.41.54.28.4.43.87.43,1.39,0,.71-.29,1.37-.78,1.85-.5.48-1.2.79-2.01.79-.53,0-.99-.13-1.38-.32-.17.21-.25.42-.25.61,0,.37.32.67.92.67ZM133.6,66.41h-.84c-.4.46-.66,1.05-.66,1.56,0,.44.12.82.41,1.09s.74.43,1.41.43c.75,0,1.39-.25,1.85-.6.45-.35.71-.81.71-1.26,0-.56-.32-.86-.84-1.03-.53-.17-1.25-.19-2.03-.19ZM133.94,60.39c-.56,0-.98.21-1.27.5s-.43.68-.43,1.06.15.76.44,1.06.71.5,1.28.5.97-.2,1.25-.5c.28-.29.42-.67.42-1.05s-.14-.77-.43-1.07c-.29-.3-.71-.5-1.27-.5Z"/>
  </g>
</svg>